<svg width="549" height="240" viewBox="0 0 549 240" fill="none" xmlns="http://www.w3.org/2000/svg">
<g id="RU">
<g id="Frame 37149">
<g id="AI Workflow Section">
<g id="Group 5">
<g id="Group 36">
<path id="Vector 7" d="M537.547 7.86995C543.438 7.86995 548.214 12.6456 548.214 18.5366C548.214 24.4276 543.438 29.2033 537.547 29.2033C531.656 29.2033 526.88 24.4277 526.88 18.5366C526.88 12.6456 531.656 7.86995 537.547 7.86995ZM11.547 0L23.094 20L5.6426e-06 20L11.547 0ZM537.547 18.5366L539.547 18.5366L539.547 90L537.547 90L535.547 90L535.547 18.5366L537.547 18.5366ZM437.547 190L437.547 192L111.547 192L111.547 190L111.547 188L437.547 188L437.547 190ZM11.547 90L9.54698 90L9.54701 18L11.547 18L13.547 18L13.547 90L11.547 90ZM111.547 190L111.547 192C55.2139 192 9.54696 146.333 9.54698 90L11.547 90L13.547 90C13.547 144.124 57.4231 188 111.547 188L111.547 190ZM537.547 90L539.547 90C539.547 146.333 493.88 192 437.547 192L437.547 190L437.547 188C491.671 188 535.547 144.124 535.547 90L537.547 90Z" fill="#4058F4"/>
<g id="Frame 37134">
<g id="Frame 3213" filter="url(#filter0_dd_358_433)">
<path d="M157.547 188C157.547 178.059 165.606 170 175.547 170L261.547 170C271.488 170 279.547 178.059 279.547 188C279.547 197.941 271.488 206 261.547 206L175.547 206C165.606 206 157.547 197.941 157.547 188Z" fill="#4058F4" shape-rendering="crispEdges"/>
<path id="Label" d="M177.759 193.444C177.663 193.444 177.599 193.4 177.567 193.312L173.835 184.096C173.819 184.064 173.811 184.04 173.811 184.024C173.811 183.944 173.863 183.904 173.967 183.904L175.599 183.904C175.703 183.904 175.767 183.948 175.791 184.036L178.383 191.008L180.951 184.036C180.975 183.948 181.043 183.904 181.155 183.904L182.763 183.904C182.827 183.904 182.871 183.924 182.895 183.964C182.919 183.996 182.919 184.04 182.895 184.096L179.163 193.312C179.131 193.4 179.067 193.444 178.971 193.444L177.759 193.444ZM185.773 193.576C185.133 193.576 184.577 193.428 184.105 193.132C183.633 192.836 183.269 192.428 183.013 191.908C182.757 191.38 182.629 190.772 182.629 190.084C182.629 189.388 182.757 188.78 183.013 188.26C183.269 187.732 183.633 187.32 184.105 187.024C184.577 186.728 185.133 186.58 185.773 186.58C186.245 186.58 186.669 186.676 187.045 186.868C187.421 187.052 187.729 187.308 187.969 187.636L188.017 186.88C188.017 186.768 188.077 186.712 188.197 186.712L189.409 186.712C189.529 186.712 189.589 186.768 189.589 186.88L189.589 193.276C189.589 193.388 189.529 193.444 189.409 193.444L188.197 193.444C188.077 193.444 188.017 193.388 188.017 193.276L187.969 192.52C187.729 192.848 187.421 193.104 187.045 193.288C186.669 193.48 186.245 193.576 185.773 193.576ZM184.369 190.084C184.369 190.66 184.537 191.132 184.873 191.5C185.217 191.86 185.657 192.04 186.193 192.04C186.737 192.04 187.177 191.86 187.513 191.5C187.849 191.132 188.017 190.66 188.017 190.084C188.017 189.5 187.849 189.028 187.513 188.668C187.177 188.3 186.737 188.116 186.193 188.116C185.657 188.116 185.217 188.3 184.873 188.668C184.537 189.028 184.369 189.5 184.369 190.084ZM191.525 193.444C191.413 193.444 191.357 193.388 191.357 193.276L191.357 186.88C191.357 186.768 191.413 186.712 191.525 186.712L192.749 186.712C192.869 186.712 192.929 186.768 192.929 186.88L192.965 187.72C193.197 187.36 193.497 187.088 193.865 186.904C194.233 186.712 194.617 186.616 195.017 186.616C195.113 186.616 195.197 186.62 195.269 186.628C195.341 186.636 195.409 186.648 195.473 186.664C195.569 186.688 195.617 186.748 195.617 186.844L195.617 188.176C195.617 188.272 195.569 188.32 195.473 188.32C195.385 188.32 195.285 188.312 195.173 188.296C195.069 188.28 194.949 188.272 194.813 188.272C194.509 188.272 194.221 188.34 193.949 188.476C193.677 188.604 193.457 188.796 193.289 189.052C193.121 189.3 193.037 189.604 193.037 189.964L193.037 193.276C193.037 193.388 192.981 193.444 192.869 193.444L191.525 193.444ZM197.611 185.512C197.331 185.512 197.095 185.428 196.903 185.26C196.719 185.084 196.627 184.856 196.627 184.576C196.627 184.296 196.719 184.072 196.903 183.904C197.095 183.728 197.331 183.64 197.611 183.64C197.891 183.64 198.123 183.728 198.307 183.904C198.499 184.072 198.595 184.296 198.595 184.576C198.595 184.856 198.499 185.084 198.307 185.26C198.123 185.428 197.891 185.512 197.611 185.512ZM196.771 186.88C196.771 186.768 196.827 186.712 196.939 186.712L198.319 186.712C198.431 186.712 198.487 186.768 198.487 186.88L198.487 193.264C198.487 193.384 198.431 193.444 198.319 193.444L196.939 193.444C196.827 193.444 196.771 193.384 196.771 193.264L196.771 186.88ZM202.976 193.576C202.336 193.576 201.78 193.428 201.308 193.132C200.836 192.836 200.472 192.428 200.216 191.908C199.96 191.38 199.832 190.772 199.832 190.084C199.832 189.388 199.96 188.78 200.216 188.26C200.472 187.732 200.836 187.32 201.308 187.024C201.78 186.728 202.336 186.58 202.976 186.58C203.448 186.58 203.872 186.676 204.248 186.868C204.624 187.052 204.932 187.308 205.172 187.636L205.22 186.88C205.22 186.768 205.28 186.712 205.4 186.712L206.612 186.712C206.732 186.712 206.792 186.768 206.792 186.88L206.792 193.276C206.792 193.388 206.732 193.444 206.612 193.444L205.4 193.444C205.28 193.444 205.22 193.388 205.22 193.276L205.172 192.52C204.932 192.848 204.624 193.104 204.248 193.288C203.872 193.48 203.448 193.576 202.976 193.576ZM201.572 190.084C201.572 190.66 201.74 191.132 202.076 191.5C202.42 191.86 202.86 192.04 203.396 192.04C203.94 192.04 204.38 191.86 204.716 191.5C205.052 191.132 205.22 190.66 205.22 190.084C205.22 189.5 205.052 189.028 204.716 188.668C204.38 188.3 203.94 188.116 203.396 188.116C202.86 188.116 202.42 188.3 202.076 188.668C201.74 189.028 201.572 189.5 201.572 190.084ZM212.364 193.576C211.9 193.576 211.476 193.48 211.092 193.288C210.716 193.104 210.408 192.848 210.168 192.52L210.132 193.276C210.132 193.388 210.072 193.444 209.952 193.444L208.728 193.444C208.616 193.444 208.56 193.388 208.56 193.276L208.56 183.868C208.56 183.756 208.616 183.7 208.728 183.7L210.072 183.7C210.184 183.7 210.24 183.756 210.24 183.868L210.24 187.528C210.496 187.224 210.804 186.992 211.164 186.832C211.524 186.664 211.924 186.58 212.364 186.58C213.004 186.58 213.56 186.728 214.032 187.024C214.504 187.32 214.868 187.732 215.124 188.26C215.38 188.78 215.508 189.388 215.508 190.084C215.508 190.772 215.38 191.38 215.124 191.908C214.868 192.428 214.504 192.836 214.032 193.132C213.56 193.428 213.004 193.576 212.364 193.576ZM210.132 190.084C210.132 190.66 210.3 191.132 210.636 191.5C210.972 191.86 211.408 192.04 211.944 192.04C212.488 192.04 212.928 191.86 213.264 191.5C213.6 191.132 213.768 190.66 213.768 190.084C213.768 189.5 213.6 189.028 213.264 188.668C212.928 188.3 212.488 188.116 211.944 188.116C211.408 188.116 210.972 188.3 210.636 188.668C210.3 189.028 210.132 189.5 210.132 190.084ZM217.06 193.444C216.948 193.444 216.892 193.388 216.892 193.276L216.892 183.868C216.892 183.756 216.948 183.7 217.06 183.7L218.404 183.7C218.516 183.7 218.572 183.756 218.572 183.868L218.572 193.276C218.572 193.388 218.516 193.444 218.404 193.444L217.06 193.444ZM223.361 193.576C222.657 193.576 222.049 193.424 221.537 193.12C221.025 192.824 220.633 192.416 220.361 191.896C220.089 191.368 219.953 190.764 219.953 190.084C219.953 189.396 220.089 188.792 220.361 188.272C220.633 187.744 221.025 187.332 221.537 187.036C222.049 186.732 222.657 186.58 223.361 186.58C224.049 186.58 224.633 186.74 225.113 187.06C225.601 187.38 225.965 187.828 226.205 188.404C226.453 188.98 226.565 189.656 226.541 190.432C226.525 190.544 226.465 190.6 226.361 190.6L221.753 190.6C221.833 191.064 222.009 191.428 222.281 191.692C222.561 191.948 222.925 192.076 223.373 192.076C224.045 192.076 224.537 191.82 224.849 191.308C224.905 191.236 224.981 191.212 225.077 191.236L226.229 191.632C226.341 191.68 226.373 191.756 226.325 191.86C226.029 192.444 225.617 192.876 225.089 193.156C224.561 193.436 223.985 193.576 223.361 193.576ZM224.741 189.34C224.661 188.94 224.497 188.632 224.249 188.416C224.009 188.192 223.709 188.08 223.349 188.08C222.957 188.08 222.621 188.192 222.341 188.416C222.069 188.632 221.881 188.94 221.777 189.34L224.741 189.34ZM230.214 193.576C229.486 193.576 228.87 193.42 228.366 193.108C227.862 192.804 227.502 192.36 227.286 191.776C227.278 191.76 227.274 191.74 227.274 191.716C227.274 191.644 227.318 191.596 227.406 191.572L228.642 191.236C228.722 191.236 228.774 191.276 228.798 191.356C228.958 191.628 229.15 191.816 229.374 191.92C229.606 192.024 229.866 192.076 230.154 192.076C230.434 192.076 230.666 192.044 230.85 191.98C231.042 191.908 231.138 191.776 231.138 191.584C231.138 191.44 231.058 191.324 230.898 191.236C230.746 191.14 230.494 191.04 230.142 190.936L229.818 190.84C229.01 190.608 228.434 190.3 228.09 189.916C227.746 189.524 227.574 189.072 227.574 188.56C227.574 188.176 227.682 187.836 227.898 187.54C228.114 187.236 228.414 187 228.798 186.832C229.19 186.664 229.638 186.58 230.142 186.58C230.79 186.58 231.338 186.72 231.786 187C232.242 187.28 232.57 187.704 232.77 188.272C232.786 188.304 232.794 188.332 232.794 188.356C232.794 188.42 232.754 188.46 232.674 188.476L231.486 188.86C231.47 188.868 231.446 188.872 231.414 188.872C231.358 188.872 231.31 188.836 231.27 188.764C231.15 188.556 230.998 188.392 230.814 188.272C230.63 188.144 230.394 188.08 230.106 188.08C229.89 188.08 229.702 188.116 229.542 188.188C229.39 188.26 229.314 188.384 229.314 188.56C229.314 188.712 229.394 188.84 229.554 188.944C229.722 189.048 229.99 189.144 230.358 189.232L230.67 189.316C231.502 189.516 232.078 189.8 232.398 190.168C232.718 190.528 232.878 190.988 232.878 191.548C232.878 191.956 232.762 192.312 232.53 192.616C232.306 192.92 231.994 193.156 231.594 193.324C231.194 193.492 230.734 193.576 230.214 193.576ZM235.029 193.576C234.733 193.576 234.481 193.476 234.273 193.276C234.073 193.084 233.973 192.84 233.973 192.544C233.973 192.24 234.073 191.996 234.273 191.812C234.481 191.62 234.733 191.524 235.029 191.524C235.333 191.524 235.585 191.62 235.785 191.812C235.985 191.996 236.085 192.24 236.085 192.544C236.085 192.84 235.985 193.084 235.785 193.276C235.585 193.476 235.333 193.576 235.029 193.576ZM239.154 185.512C238.874 185.512 238.638 185.428 238.446 185.26C238.262 185.084 238.17 184.856 238.17 184.576C238.17 184.296 238.262 184.072 238.446 183.904C238.638 183.728 238.874 183.64 239.154 183.64C239.434 183.64 239.666 183.728 239.85 183.904C240.042 184.072 240.138 184.296 240.138 184.576C240.138 184.856 240.042 185.084 239.85 185.26C239.666 185.428 239.434 185.512 239.154 185.512ZM235.59 195.076C235.582 195.06 235.578 195.036 235.578 195.004C235.578 194.94 235.618 194.896 235.698 194.872L236.766 194.476C236.798 194.46 236.822 194.452 236.838 194.452C236.894 194.452 236.942 194.488 236.982 194.56C237.038 194.664 237.11 194.74 237.198 194.788C237.286 194.844 237.414 194.872 237.582 194.872C237.83 194.872 238.014 194.784 238.134 194.608C238.254 194.44 238.314 194.164 238.314 193.78L238.314 186.88C238.314 186.768 238.37 186.712 238.482 186.712L239.826 186.712C239.938 186.712 239.994 186.768 239.994 186.88L239.994 193.636C239.994 194.508 239.798 195.188 239.406 195.676C239.014 196.164 238.422 196.408 237.63 196.408C237.158 196.408 236.746 196.296 236.394 196.072C236.042 195.848 235.774 195.516 235.59 195.076ZM244.183 193.576C243.455 193.576 242.839 193.42 242.335 193.108C241.831 192.804 241.471 192.36 241.255 191.776C241.247 191.76 241.243 191.74 241.243 191.716C241.243 191.644 241.287 191.596 241.375 191.572L242.611 191.236C242.691 191.236 242.743 191.276 242.767 191.356C242.927 191.628 243.119 191.816 243.343 191.92C243.575 192.024 243.835 192.076 244.123 192.076C244.403 192.076 244.635 192.044 244.819 191.98C245.011 191.908 245.107 191.776 245.107 191.584C245.107 191.44 245.027 191.324 244.867 191.236C244.715 191.14 244.463 191.04 244.111 190.936L243.787 190.84C242.979 190.608 242.403 190.3 242.059 189.916C241.715 189.524 241.543 189.072 241.543 188.56C241.543 188.176 241.651 187.836 241.867 187.54C242.083 187.236 242.383 187 242.767 186.832C243.159 186.664 243.607 186.58 244.111 186.58C244.759 186.58 245.307 186.72 245.755 187C246.211 187.28 246.539 187.704 246.739 188.272C246.755 188.304 246.763 188.332 246.763 188.356C246.763 188.42 246.723 188.46 246.643 188.476L245.455 188.86C245.439 188.868 245.415 188.872 245.383 188.872C245.327 188.872 245.279 188.836 245.239 188.764C245.119 188.556 244.967 188.392 244.783 188.272C244.599 188.144 244.363 188.08 244.075 188.08C243.859 188.08 243.671 188.116 243.511 188.188C243.359 188.26 243.283 188.384 243.283 188.56C243.283 188.712 243.363 188.84 243.523 188.944C243.691 189.048 243.959 189.144 244.327 189.232L244.639 189.316C245.471 189.516 246.047 189.8 246.367 190.168C246.687 190.528 246.847 190.988 246.847 191.548C246.847 191.956 246.731 192.312 246.499 192.616C246.275 192.92 245.963 193.156 245.563 193.324C245.163 193.492 244.703 193.576 244.183 193.576ZM251.302 193.576C250.582 193.576 249.954 193.424 249.418 193.12C248.89 192.824 248.478 192.416 248.182 191.896C247.886 191.368 247.738 190.764 247.738 190.084C247.738 189.396 247.886 188.792 248.182 188.272C248.478 187.744 248.89 187.332 249.418 187.036C249.954 186.732 250.582 186.58 251.302 186.58C252.022 186.58 252.65 186.732 253.186 187.036C253.722 187.332 254.134 187.744 254.422 188.272C254.718 188.792 254.866 189.396 254.866 190.084C254.866 190.764 254.718 191.368 254.422 191.896C254.134 192.416 253.722 192.824 253.186 193.12C252.65 193.424 252.022 193.576 251.302 193.576ZM249.478 190.084C249.478 190.66 249.646 191.132 249.982 191.5C250.326 191.86 250.766 192.04 251.302 192.04C251.846 192.04 252.286 191.86 252.622 191.5C252.958 191.132 253.126 190.66 253.126 190.084C253.126 189.5 252.958 189.028 252.622 188.668C252.286 188.3 251.846 188.116 251.302 188.116C250.766 188.116 250.326 188.3 249.982 188.668C249.646 189.028 249.478 189.5 249.478 190.084ZM256.412 193.444C256.3 193.444 256.244 193.388 256.244 193.276L256.244 186.88C256.244 186.768 256.3 186.712 256.412 186.712L257.636 186.712C257.756 186.712 257.816 186.768 257.816 186.88L257.852 187.648C258.1 187.288 258.42 187.02 258.812 186.844C259.204 186.668 259.616 186.58 260.048 186.58C260.832 186.58 261.436 186.8 261.86 187.24C262.292 187.68 262.508 188.288 262.508 189.064L262.508 193.276C262.508 193.388 262.452 193.444 262.34 193.444L260.984 193.444C260.872 193.444 260.816 193.388 260.816 193.276L260.816 189.748C260.816 189.188 260.712 188.776 260.504 188.512C260.296 188.248 259.972 188.116 259.532 188.116C259.26 188.116 259 188.184 258.752 188.32C258.504 188.456 258.304 188.664 258.152 188.944C258 189.224 257.924 189.58 257.924 190.012L257.924 193.276C257.924 193.388 257.868 193.444 257.756 193.444L256.412 193.444Z" fill="#F6F4FF"/>
</g>
<g id="Frame 3212" filter="url(#filter1_dd_358_433)">
<path d="M291.547 188C291.547 178.059 299.606 170 309.547 170H373.547C383.488 170 391.547 178.059 391.547 188C391.547 197.941 383.488 206 373.547 206H309.547C299.606 206 291.547 197.941 291.547 188Z" fill="#4058F4" shape-rendering="crispEdges"/>
<path id="Label_2" d="M311.495 193.624C310.607 193.624 309.859 193.412 309.251 192.988C308.651 192.556 308.223 191.928 307.967 191.104C307.959 191.088 307.955 191.064 307.955 191.032C307.955 190.968 307.995 190.924 308.075 190.9L309.431 190.576C309.447 190.568 309.467 190.564 309.491 190.564C309.563 190.564 309.611 190.604 309.635 190.684C309.811 191.1 310.043 191.408 310.331 191.608C310.619 191.808 311.007 191.908 311.495 191.908C311.959 191.908 312.331 191.828 312.611 191.668C312.899 191.508 313.043 191.252 313.043 190.9C313.043 190.548 312.903 190.268 312.623 190.06C312.351 189.852 311.971 189.66 311.483 189.484L310.643 189.184C309.883 188.92 309.283 188.56 308.843 188.104C308.411 187.648 308.195 187.08 308.195 186.4C308.195 185.88 308.335 185.42 308.615 185.02C308.903 184.612 309.287 184.296 309.767 184.072C310.255 183.84 310.799 183.724 311.399 183.724C312.199 183.724 312.883 183.916 313.451 184.3C314.019 184.676 314.423 185.26 314.663 186.052C314.671 186.068 314.675 186.092 314.675 186.124C314.675 186.188 314.635 186.232 314.555 186.256L313.127 186.616C313.111 186.624 313.087 186.628 313.055 186.628C312.999 186.628 312.951 186.588 312.911 186.508C312.759 186.116 312.555 185.84 312.299 185.68C312.051 185.52 311.751 185.44 311.399 185.44C310.983 185.44 310.647 185.524 310.391 185.692C310.143 185.852 310.019 186.072 310.019 186.352C310.019 186.648 310.147 186.904 310.403 187.12C310.659 187.328 311.067 187.524 311.627 187.708L312.299 187.936C313.163 188.216 313.807 188.584 314.231 189.04C314.655 189.496 314.867 190.116 314.867 190.9C314.867 191.428 314.723 191.896 314.435 192.304C314.155 192.712 313.759 193.032 313.247 193.264C312.743 193.504 312.159 193.624 311.495 193.624ZM318.82 193.576C318.092 193.576 317.532 193.348 317.14 192.892C316.756 192.436 316.564 191.752 316.564 190.84V188.224H315.58C315.468 188.224 315.412 188.168 315.412 188.056V186.88C315.412 186.768 315.468 186.712 315.58 186.712H316.564V184.9C316.564 184.788 316.62 184.732 316.732 184.732H318.088C318.2 184.732 318.256 184.788 318.256 184.9V186.712H319.852C319.964 186.712 320.02 186.768 320.02 186.88V188.056C320.02 188.168 319.964 188.224 319.852 188.224H318.256V190.948C318.256 191.676 318.508 192.04 319.012 192.04C319.22 192.04 319.388 191.932 319.516 191.716C319.572 191.612 319.648 191.584 319.744 191.632L320.764 192.088C320.828 192.128 320.86 192.176 320.86 192.232C320.86 192.28 320.844 192.324 320.812 192.364C320.572 192.804 320.276 193.116 319.924 193.3C319.572 193.484 319.204 193.576 318.82 193.576ZM322.38 196.276C322.252 196.276 322.208 196.212 322.248 196.084L323.484 193.012L320.784 186.904C320.768 186.872 320.76 186.844 320.76 186.82C320.76 186.748 320.812 186.712 320.916 186.712H322.524C322.62 186.712 322.684 186.756 322.716 186.844L324.36 190.972L325.956 186.844C325.988 186.756 326.052 186.712 326.148 186.712H327.636C327.692 186.712 327.732 186.732 327.756 186.772C327.788 186.804 327.788 186.848 327.756 186.904L323.988 196.144C323.956 196.232 323.892 196.276 323.796 196.276H322.38ZM329.099 193.444C328.987 193.444 328.931 193.388 328.931 193.276V183.868C328.931 183.756 328.987 183.7 329.099 183.7H330.443C330.555 183.7 330.611 183.756 330.611 183.868V193.276C330.611 193.388 330.555 193.444 330.443 193.444H329.099ZM335.4 193.576C334.696 193.576 334.088 193.424 333.576 193.12C333.064 192.824 332.672 192.416 332.4 191.896C332.128 191.368 331.992 190.764 331.992 190.084C331.992 189.396 332.128 188.792 332.4 188.272C332.672 187.744 333.064 187.332 333.576 187.036C334.088 186.732 334.696 186.58 335.4 186.58C336.088 186.58 336.672 186.74 337.152 187.06C337.64 187.38 338.004 187.828 338.244 188.404C338.492 188.98 338.604 189.656 338.58 190.432C338.564 190.544 338.504 190.6 338.4 190.6H333.792C333.872 191.064 334.048 191.428 334.32 191.692C334.6 191.948 334.964 192.076 335.412 192.076C336.084 192.076 336.576 191.82 336.888 191.308C336.944 191.236 337.02 191.212 337.116 191.236L338.268 191.632C338.38 191.68 338.412 191.756 338.364 191.86C338.068 192.444 337.656 192.876 337.128 193.156C336.6 193.436 336.024 193.576 335.4 193.576ZM336.78 189.34C336.7 188.94 336.536 188.632 336.288 188.416C336.048 188.192 335.748 188.08 335.388 188.08C334.996 188.08 334.66 188.192 334.38 188.416C334.108 188.632 333.92 188.94 333.816 189.34H336.78ZM342.253 193.576C341.525 193.576 340.909 193.42 340.405 193.108C339.901 192.804 339.541 192.36 339.325 191.776C339.317 191.76 339.313 191.74 339.313 191.716C339.313 191.644 339.357 191.596 339.445 191.572L340.681 191.236C340.761 191.236 340.813 191.276 340.837 191.356C340.997 191.628 341.189 191.816 341.413 191.92C341.645 192.024 341.905 192.076 342.193 192.076C342.473 192.076 342.705 192.044 342.889 191.98C343.081 191.908 343.177 191.776 343.177 191.584C343.177 191.44 343.097 191.324 342.937 191.236C342.785 191.14 342.533 191.04 342.181 190.936L341.857 190.84C341.049 190.608 340.473 190.3 340.129 189.916C339.785 189.524 339.613 189.072 339.613 188.56C339.613 188.176 339.721 187.836 339.937 187.54C340.153 187.236 340.453 187 340.837 186.832C341.229 186.664 341.677 186.58 342.181 186.58C342.829 186.58 343.377 186.72 343.825 187C344.281 187.28 344.609 187.704 344.809 188.272C344.825 188.304 344.833 188.332 344.833 188.356C344.833 188.42 344.793 188.46 344.713 188.476L343.525 188.86C343.509 188.868 343.485 188.872 343.453 188.872C343.397 188.872 343.349 188.836 343.309 188.764C343.189 188.556 343.037 188.392 342.853 188.272C342.669 188.144 342.433 188.08 342.145 188.08C341.929 188.08 341.741 188.116 341.581 188.188C341.429 188.26 341.353 188.384 341.353 188.56C341.353 188.712 341.433 188.84 341.593 188.944C341.761 189.048 342.029 189.144 342.397 189.232L342.709 189.316C343.541 189.516 344.117 189.8 344.437 190.168C344.757 190.528 344.917 190.988 344.917 191.548C344.917 191.956 344.801 192.312 344.569 192.616C344.345 192.92 344.033 193.156 343.633 193.324C343.233 193.492 342.773 193.576 342.253 193.576ZM347.068 193.576C346.772 193.576 346.52 193.476 346.312 193.276C346.112 193.084 346.012 192.84 346.012 192.544C346.012 192.24 346.112 191.996 346.312 191.812C346.52 191.62 346.772 191.524 347.068 191.524C347.372 191.524 347.624 191.62 347.824 191.812C348.024 191.996 348.124 192.24 348.124 192.544C348.124 192.84 348.024 193.084 347.824 193.276C347.624 193.476 347.372 193.576 347.068 193.576ZM351.193 185.512C350.913 185.512 350.677 185.428 350.485 185.26C350.301 185.084 350.209 184.856 350.209 184.576C350.209 184.296 350.301 184.072 350.485 183.904C350.677 183.728 350.913 183.64 351.193 183.64C351.473 183.64 351.705 183.728 351.889 183.904C352.081 184.072 352.177 184.296 352.177 184.576C352.177 184.856 352.081 185.084 351.889 185.26C351.705 185.428 351.473 185.512 351.193 185.512ZM347.629 195.076C347.621 195.06 347.617 195.036 347.617 195.004C347.617 194.94 347.657 194.896 347.737 194.872L348.805 194.476C348.837 194.46 348.861 194.452 348.877 194.452C348.933 194.452 348.981 194.488 349.021 194.56C349.077 194.664 349.149 194.74 349.237 194.788C349.325 194.844 349.453 194.872 349.621 194.872C349.869 194.872 350.053 194.784 350.173 194.608C350.293 194.44 350.353 194.164 350.353 193.78V186.88C350.353 186.768 350.409 186.712 350.521 186.712H351.865C351.977 186.712 352.033 186.768 352.033 186.88V193.636C352.033 194.508 351.837 195.188 351.445 195.676C351.053 196.164 350.461 196.408 349.669 196.408C349.197 196.408 348.785 196.296 348.433 196.072C348.081 195.848 347.813 195.516 347.629 195.076ZM356.222 193.576C355.494 193.576 354.878 193.42 354.374 193.108C353.87 192.804 353.51 192.36 353.294 191.776C353.286 191.76 353.282 191.74 353.282 191.716C353.282 191.644 353.326 191.596 353.414 191.572L354.65 191.236C354.73 191.236 354.782 191.276 354.806 191.356C354.966 191.628 355.158 191.816 355.382 191.92C355.614 192.024 355.874 192.076 356.162 192.076C356.442 192.076 356.674 192.044 356.858 191.98C357.05 191.908 357.146 191.776 357.146 191.584C357.146 191.44 357.066 191.324 356.906 191.236C356.754 191.14 356.502 191.04 356.15 190.936L355.826 190.84C355.018 190.608 354.442 190.3 354.098 189.916C353.754 189.524 353.582 189.072 353.582 188.56C353.582 188.176 353.69 187.836 353.906 187.54C354.122 187.236 354.422 187 354.806 186.832C355.198 186.664 355.646 186.58 356.15 186.58C356.798 186.58 357.346 186.72 357.794 187C358.25 187.28 358.578 187.704 358.778 188.272C358.794 188.304 358.802 188.332 358.802 188.356C358.802 188.42 358.762 188.46 358.682 188.476L357.494 188.86C357.478 188.868 357.454 188.872 357.422 188.872C357.366 188.872 357.318 188.836 357.278 188.764C357.158 188.556 357.006 188.392 356.822 188.272C356.638 188.144 356.402 188.08 356.114 188.08C355.898 188.08 355.71 188.116 355.55 188.188C355.398 188.26 355.322 188.384 355.322 188.56C355.322 188.712 355.402 188.84 355.562 188.944C355.73 189.048 355.998 189.144 356.366 189.232L356.678 189.316C357.51 189.516 358.086 189.8 358.406 190.168C358.726 190.528 358.886 190.988 358.886 191.548C358.886 191.956 358.77 192.312 358.538 192.616C358.314 192.92 358.002 193.156 357.602 193.324C357.202 193.492 356.742 193.576 356.222 193.576ZM363.341 193.576C362.621 193.576 361.993 193.424 361.457 193.12C360.929 192.824 360.517 192.416 360.221 191.896C359.925 191.368 359.777 190.764 359.777 190.084C359.777 189.396 359.925 188.792 360.221 188.272C360.517 187.744 360.929 187.332 361.457 187.036C361.993 186.732 362.621 186.58 363.341 186.58C364.061 186.58 364.689 186.732 365.225 187.036C365.761 187.332 366.173 187.744 366.461 188.272C366.757 188.792 366.905 189.396 366.905 190.084C366.905 190.764 366.757 191.368 366.461 191.896C366.173 192.416 365.761 192.824 365.225 193.12C364.689 193.424 364.061 193.576 363.341 193.576ZM361.517 190.084C361.517 190.66 361.685 191.132 362.021 191.5C362.365 191.86 362.805 192.04 363.341 192.04C363.885 192.04 364.325 191.86 364.661 191.5C364.997 191.132 365.165 190.66 365.165 190.084C365.165 189.5 364.997 189.028 364.661 188.668C364.325 188.3 363.885 188.116 363.341 188.116C362.805 188.116 362.365 188.3 362.021 188.668C361.685 189.028 361.517 189.5 361.517 190.084ZM368.451 193.444C368.339 193.444 368.283 193.388 368.283 193.276V186.88C368.283 186.768 368.339 186.712 368.451 186.712H369.675C369.795 186.712 369.855 186.768 369.855 186.88L369.891 187.648C370.139 187.288 370.459 187.02 370.851 186.844C371.243 186.668 371.655 186.58 372.087 186.58C372.871 186.58 373.475 186.8 373.899 187.24C374.331 187.68 374.547 188.288 374.547 189.064V193.276C374.547 193.388 374.491 193.444 374.379 193.444H373.023C372.911 193.444 372.855 193.388 372.855 193.276V189.748C372.855 189.188 372.751 188.776 372.543 188.512C372.335 188.248 372.011 188.116 371.571 188.116C371.299 188.116 371.039 188.184 370.791 188.32C370.543 188.456 370.343 188.664 370.191 188.944C370.039 189.224 369.963 189.58 369.963 190.012V193.276C369.963 193.388 369.907 193.444 369.795 193.444H368.451Z" fill="#F6F4FF"/>
</g>
</g>
</g>
</g>
</g>
</g>
</g>
<defs>
<filter id="filter0_dd_358_433" x="123.547" y="136" width="190" height="104" filterUnits="userSpaceOnUse" color-interpolation-filters="sRGB">
<feFlood flood-opacity="0" result="BackgroundImageFix"/>
<feColorMatrix in="SourceAlpha" type="matrix" values="0 0 0 0 0 0 0 0 0 0 0 0 0 0 0 0 0 0 127 0" result="hardAlpha"/>
<feOffset/>
<feGaussianBlur stdDeviation="10"/>
<feComposite in2="hardAlpha" operator="out"/>
<feColorMatrix type="matrix" values="0 0 0 0 0.0745098 0 0 0 0 0.0745098 0 0 0 0 0.0745098 0 0 0 1 0"/>
<feBlend mode="normal" in2="BackgroundImageFix" result="effect1_dropShadow_358_433"/>
<feColorMatrix in="SourceAlpha" type="matrix" values="0 0 0 0 0 0 0 0 0 0 0 0 0 0 0 0 0 0 127 0" result="hardAlpha"/>
<feOffset/>
<feGaussianBlur stdDeviation="17"/>
<feComposite in2="hardAlpha" operator="out"/>
<feColorMatrix type="matrix" values="0 0 0 0 0 0 0 0 0 0 0 0 0 0 0 0 0 0 1 0"/>
<feBlend mode="normal" in2="effect1_dropShadow_358_433" result="effect2_dropShadow_358_433"/>
<feBlend mode="normal" in="SourceGraphic" in2="effect2_dropShadow_358_433" result="shape"/>
</filter>
<filter id="filter1_dd_358_433" x="257.547" y="136" width="168" height="104" filterUnits="userSpaceOnUse" color-interpolation-filters="sRGB">
<feFlood flood-opacity="0" result="BackgroundImageFix"/>
<feColorMatrix in="SourceAlpha" type="matrix" values="0 0 0 0 0 0 0 0 0 0 0 0 0 0 0 0 0 0 127 0" result="hardAlpha"/>
<feOffset/>
<feGaussianBlur stdDeviation="10"/>
<feComposite in2="hardAlpha" operator="out"/>
<feColorMatrix type="matrix" values="0 0 0 0 0.0745098 0 0 0 0 0.0745098 0 0 0 0 0.0745098 0 0 0 1 0"/>
<feBlend mode="normal" in2="BackgroundImageFix" result="effect1_dropShadow_358_433"/>
<feColorMatrix in="SourceAlpha" type="matrix" values="0 0 0 0 0 0 0 0 0 0 0 0 0 0 0 0 0 0 127 0" result="hardAlpha"/>
<feOffset/>
<feGaussianBlur stdDeviation="17"/>
<feComposite in2="hardAlpha" operator="out"/>
<feColorMatrix type="matrix" values="0 0 0 0 0 0 0 0 0 0 0 0 0 0 0 0 0 0 1 0"/>
<feBlend mode="normal" in2="effect1_dropShadow_358_433" result="effect2_dropShadow_358_433"/>
<feBlend mode="normal" in="SourceGraphic" in2="effect2_dropShadow_358_433" result="shape"/>
</filter>
</defs>
</svg>
