<svg width="150" height="150" viewBox="0 0 150 150" fill="none" xmlns="http://www.w3.org/2000/svg">
<g id="RU">
<g id="Frame 37149">
<g id="AI Workflow Section">
<g id="Group 5">
<g id="Frame 37128">
<g id="Frame 37128_2">
<g id="Frame 162" filter="url(#filter0_i_358_433)">
<path d="M-165 53.1111C-165 -27.0801 -165 -67.1756 -140.088 -92.0878C-115.176 -117 -75.0801 -117 5.11107 -117H144.889C225.08 -117 265.176 -117 290.088 -92.0878C315 -67.1756 315 -27.0801 315 53.1111V162.889C315 243.08 315 283.176 290.088 308.088C265.176 333 225.08 333 144.889 333H5.11107C-75.0801 333 -115.176 333 -140.088 308.088C-165 283.176 -165 243.08 -165 162.889V53.1111Z" fill="#153048" fill-opacity="0.1"/>
<path d="M5.11133 -116H144.889C185.013 -116 215.005 -115.998 238.085 -112.895C261.136 -109.795 277.142 -103.62 289.381 -91.3809C301.62 -79.1416 307.795 -63.1357 310.895 -40.085C313.998 -17.0053 314 12.9875 314 53.1113V162.889C314 203.013 313.998 233.005 310.895 256.085C307.795 279.136 301.62 295.142 289.381 307.381C277.142 319.62 261.136 325.795 238.085 328.895C215.005 331.998 185.013 332 144.889 332H5.11133C-35.0125 332 -65.0053 331.998 -88.085 328.895C-111.136 325.795 -127.142 319.62 -139.381 307.381C-151.62 295.142 -157.795 279.136 -160.895 256.085C-163.998 233.005 -164 203.013 -164 162.889V53.1113L-163.994 38.5332C-163.951 5.59715 -163.61 -19.8903 -160.895 -40.085C-157.795 -63.1357 -151.62 -79.1416 -139.381 -91.3809C-127.142 -103.62 -111.136 -109.795 -88.085 -112.895C-65.0053 -115.998 -35.0125 -116 5.11133 -116Z" stroke="url(#paint0_linear_358_433)" stroke-width="2"/>
<g id="Frame 37184">
<path d="M75 0.5C91.9432 0.5 104.604 0.501394 114.415 1.72266C124.214 2.9424 131.101 5.3725 136.53 10.1826C137.691 11.2111 138.789 12.3088 139.817 13.4697C144.627 18.8992 147.058 25.7863 148.277 35.585C149.499 45.3959 149.5 58.0568 149.5 75C149.5 91.9432 149.499 104.604 148.277 114.415C147.058 124.214 144.627 131.101 139.817 136.53C138.789 137.691 137.691 138.789 136.53 139.817C131.101 144.627 124.214 147.058 114.415 148.277C104.604 149.499 91.9432 149.5 75 149.5C58.0568 149.5 45.3959 149.499 35.585 148.277C25.7863 147.058 18.8992 144.627 13.4697 139.817C12.3088 138.789 11.2111 137.691 10.1826 136.53C5.3725 131.101 2.9424 124.214 1.72266 114.415C0.501394 104.604 0.5 91.9432 0.5 75C0.5 58.0568 0.501394 45.3959 1.72266 35.585C2.9424 25.7863 5.3725 18.8992 10.1826 13.4697C11.2111 12.3088 12.3088 11.2111 13.4697 10.1826C18.8992 5.3725 25.7863 2.9424 35.585 1.72266C45.3959 0.501394 58.0568 0.5 75 0.5Z" stroke="url(#paint1_linear_358_433)"/>
<g id="Mobile / Process / Logo">
<path d="M9 65.4103C9 38.8182 9 25.5222 17.2611 17.2611C25.5222 9 38.8182 9 65.4103 9H84.5897C111.182 9 124.478 9 132.739 17.2611C141 25.5222 141 38.8182 141 65.4103V84.5897C141 111.182 141 124.478 132.739 132.739C124.478 141 111.182 141 84.5897 141H65.4103C38.8182 141 25.5222 141 17.2611 132.739C9 124.478 9 111.182 9 84.5897V65.4103Z" fill="#1C1C1C"/>
<path d="M45.6668 104.773C45.6668 96.6731 52.2333 90.1066 60.3334 90.1066H75V104.773C75 112.873 68.4335 119.44 60.3334 119.44C52.2333 119.44 45.6668 112.873 45.6668 104.773Z" fill="#24CB71"/>
<path d="M74.9999 31.4399V60.7731H89.6665C97.7666 60.7731 104.333 54.2066 104.333 46.1065C104.333 38.0064 97.7666 31.4399 89.6665 31.4399H74.9999Z" fill="#FF7237"/>
<path d="M89.5442 90.1062C97.6443 90.1062 104.211 83.5397 104.211 75.4396C104.211 67.3394 97.6443 60.7729 89.5442 60.7729C81.444 60.7729 74.8775 67.3394 74.8775 75.4396C74.8775 83.5397 81.444 90.1062 89.5442 90.1062Z" fill="#00B6FF"/>
<path d="M45.667 46.1066C45.667 54.2067 52.2335 60.7732 60.3336 60.7732L74.9999 60.7731V31.4399L60.3336 31.4399C52.2335 31.4399 45.667 38.0065 45.667 46.1066Z" fill="#FF3737"/>
<path d="M45.6668 75.4396C45.6668 83.5397 52.2333 90.1066 60.3334 90.1066H75L74.9999 60.7731L60.3336 60.7732C52.2335 60.7732 45.6668 67.3395 45.6668 75.4396Z" fill="#874FFF"/>
</g>
</g>
</g>
</g>
</g>
</g>
</g>
</g>
</g>
<defs>
<filter id="filter0_i_358_433" x="-165" y="-117" width="480" height="450" filterUnits="userSpaceOnUse" color-interpolation-filters="sRGB">
<feFlood flood-opacity="0" result="BackgroundImageFix"/>
<feBlend mode="normal" in="SourceGraphic" in2="BackgroundImageFix" result="shape"/>
<feColorMatrix in="SourceAlpha" type="matrix" values="0 0 0 0 0 0 0 0 0 0 0 0 0 0 0 0 0 0 127 0" result="hardAlpha"/>
<feMorphology radius="5.31597" operator="erode" in="SourceAlpha" result="effect1_innerShadow_358_433"/>
<feOffset/>
<feGaussianBlur stdDeviation="80"/>
<feComposite in2="hardAlpha" operator="arithmetic" k2="-1" k3="1"/>
<feColorMatrix type="matrix" values="0 0 0 0 0.25098 0 0 0 0 0.345098 0 0 0 0 0.956863 0 0 0 0.3 0"/>
<feBlend mode="normal" in2="shape" result="effect1_innerShadow_358_433"/>
</filter>
<linearGradient id="paint0_linear_358_433" x1="-86.933" y1="-93.719" x2="209.639" y2="356.667" gradientUnits="userSpaceOnUse">
<stop stop-color="#4058F4"/>
<stop offset="0.228168" stop-color="#A0ACFB" stop-opacity="0.1"/>
<stop offset="0.474256" stop-color="#A0ACFB" stop-opacity="0"/>
<stop offset="1" stop-color="#4058F4"/>
</linearGradient>
<linearGradient id="paint1_linear_358_433" x1="24.3959" y1="7.76034" x2="125.625" y2="151.883" gradientUnits="userSpaceOnUse">
<stop stop-color="#4058F4"/>
<stop offset="0.228168" stop-color="#A0ACFB" stop-opacity="0.1"/>
<stop offset="0.474256" stop-color="#A0ACFB" stop-opacity="0"/>
<stop offset="1" stop-color="#4058F4"/>
</linearGradient>
</defs>
</svg>
